PathFileType	4	(X/Y/Z)	D:\TRACE\spot_10-12-23\spot_body_motion_3_5-v60.trc
DataRate	CameraRate	NumFrames	NumMarkers	Units	OrigDataRate	OrigDataStartFrame	OrigNumFrames
100.00	100.00	      24	9	mm	100.00	1751	      7000
Frame#	Time	front left toe			Front right toe			aft left toe			aft right toe			Arm			FL body			FR body			AL Body			AR Body			
		X1	Y1	Z1	X2	Y2	Z2	X3	Y3	Z3	X4	Y4	Z4	X5	Y5	Z5	X6	Y6	Z6	X7	Y7	Z7	X8	Y8	Z8	X9	Y9	Z9	

1751	17.500	-340.82776	22.65096	105.43253	219.03207	151.84917	35.78807	-218.98836	20.98888	601.74634	323.88785	24.26014	551.05963	-90.14025	816.62903	-62.31557	-177.13797	555.27277	-33.53788	-26.53232	557.93634	-58.65794	-37.76652	548.39703	838.75830	110.65563	544.26111	816.07263	
1752	17.510	-340.84348	22.69839	105.40884	220.76360	148.42287	33.42352	-219.01248	21.00753	601.68243	323.27521	24.16113	550.97986	-89.97232	816.64087	-62.36956	-176.90295	555.30731	-33.45675	-26.39882	557.95807	-58.63840	-37.54849	548.59180	838.86053	110.56834	544.72968	816.56995	
1753	17.520	-340.83054	22.72712	105.40355	222.66843	142.13263	31.04980	-219.69922	21.78594	601.26447	323.24966	24.21514	551.07037	-89.68477	816.68652	-62.35302	-176.64670	555.41162	-33.43878	-26.18168	557.89343	-58.68513	-38.08420	549.35443	839.36957	110.93167	545.13892	816.85583	
1754	17.530	-340.88324	22.76022	105.40259	224.53925	133.68335	28.93804	-219.16612	21.13117	601.63397	323.08630	24.26179	551.05798	-89.29099	816.71161	-62.39602	-176.35100	555.48596	-33.46286	-26.03496	557.85242	-58.68398	-37.88936	549.82202	839.43781	111.32159	545.32056	816.99036	
1755	17.540	-340.92493	22.74900	105.42102	226.11963	123.30968	26.98573	-219.33633	21.28659	601.55029	322.99347	24.33448	551.03638	-88.75708	816.62512	-62.54179	-176.11008	555.51050	-33.49482	-25.79709	557.71271	-58.67601	-37.95572	550.18500	839.11255	111.72094	545.63043	817.35333	
1756	17.550	-341.02643	22.72983	105.42888	227.50113	112.10917	25.76981	-219.46539	21.40197	601.48352	323.00842	24.31359	551.04724	-88.39429	816.62268	-62.70196	-175.92738	555.53442	-33.53092	-25.48855	557.54950	-58.65056	-38.07623	550.50281	839.05591	111.97592	545.86023	817.49438	
1757	17.560	-341.14059	22.72758	105.40228	229.39061	100.38753	24.94489	-219.51033	21.51852	601.47021	322.92719	24.24430	550.98517	-87.87614	816.51782	-62.87806	-175.71394	555.46088	-33.55040	-25.11783	557.36230	-58.65522	-37.91887	550.73755	839.06635	112.25976	546.09863	817.61505	
1758	17.570	-341.18225	22.75612	105.42771	230.38373	89.93533	24.40379	-219.60046	21.65618	601.42786	322.93704	24.21307	551.01935	-87.45755	816.36560	-63.02221	-175.43011	555.29272	-33.59380	-24.95213	557.48840	-59.31036	-37.52913	550.93939	839.17523	112.43040	546.32043	817.57672	
1759	17.580	-341.18802	22.78814	105.40038	231.44498	79.41182	24.08967	-219.69934	21.74642	601.37372	322.95987	24.22462	551.02271	-87.29723	816.17041	-63.13826	-175.16531	555.12347	-33.64178	-24.79390	557.37274	-59.27481	-35.90813	550.55200	839.14001	112.50266	546.48462	817.25726	
1760	17.590	-341.16974	22.79700	105.39244	232.43372	69.52392	23.40043	-219.73767	21.81100	601.36304	322.93362	24.17392	550.94727	-87.07405	816.04895	-63.22979	-174.97684	555.00647	-33.67916	-24.43754	557.15668	-59.24405	-36.39355	551.30249	839.45160	112.67766	546.71655	817.15686	
1761	17.600	-341.13998	22.78250	105.38438	233.17792	59.13458	22.49225	-219.83301	21.86861	601.35565	322.92896	24.22179	550.96320	-86.88754	815.82861	-63.41222	-174.72491	554.86047	-33.70826	-23.99966	556.77673	-58.64759	-36.09956	551.47968	839.52521	112.87570	546.97803	817.04352	
1762	17.610	-341.16299	22.79040	105.36141	234.37880	49.22297	21.71678	-219.89984	21.82019	601.36932	323.47406	24.41048	551.08258	-86.55275	815.70062	-63.66010	-174.43141	554.76886	-33.78654	-23.76909	556.63275	-58.74308	-36.22180	551.61017	839.02332	113.26089	547.23297	817.00677	
1763	17.620	-341.15454	22.80115	105.36366	234.30219	38.88719	21.47438	-219.96158	21.83297	601.35535	322.96335	24.18051	550.98840	-86.31068	815.66888	-63.88340	-174.07962	554.69958	-33.86778	-23.61514	556.74066	-59.32841	-35.86299	551.83789	839.01526	113.44843	547.44952	817.01587	
1764	17.630	-341.17407	22.83305	105.36787	234.45378	27.93700	21.12868	-219.91969	21.88532	601.31152	322.53513	24.01127	550.91144	-85.95539	815.56110	-64.12764	-173.83411	554.63928	-34.03181	-23.34787	556.65399	-59.43446	-35.12631	551.74695	838.61401	113.83233	547.43158	817.21564	
1765	17.640	-341.13779	22.90312	105.39551	235.10086	27.05992	18.91734	-220.02501	21.92871	601.27997	322.73773	24.02946	550.95935	-85.55151	815.40790	-64.30947	-173.70396	554.65057	-34.05922	-23.25250	556.78461	-59.56853	-34.98369	551.76782	838.58643	114.00409	547.60394	817.18768	
1766	17.650	-341.11853	23.34947	105.46047	237.28969	28.78067	21.54774	-220.27135	20.62830	601.01758	322.86493	24.30991	550.54150	-86.17253	815.96515	-63.94249	-173.42249	554.84625	-34.08839	-23.05564	557.51233	-59.67173	-34.77462	551.93103	838.51746	114.28954	547.99207	817.04565	
1767	17.660	-341.39706	23.28752	105.64586	237.65208	28.69218	23.83195	-220.33255	21.00905	601.08337	322.74191	24.38296	550.75433	-87.28165	816.97290	-63.76840	-173.32001	555.00916	-34.11797	-22.84042	557.74500	-59.17274	-34.43077	552.59027	838.47607	114.33054	548.83331	816.66571	
1768	17.670	-341.76199	23.25153	105.70341	236.65016	29.69522	22.47491	-220.07436	21.29999	601.09375	322.83670	24.38095	550.71405	-87.76980	817.52606	-63.69746	-173.34064	555.06378	-34.22780	-22.88825	558.06256	-59.35795	-33.44930	553.05029	838.76404	114.85542	549.69452	816.70850	
1769	17.680	-341.77713	23.28784	105.72009	236.88750	29.35147	22.77863	-220.03931	21.38683	600.94189	323.00632	24.18770	550.59576	-87.90093	817.30206	-64.17978	-173.40929	555.03552	-34.33223	-22.89888	558.24622	-59.57690	-36.18760	554.56183	838.28113	114.94955	550.56244	816.22876	
1770	17.690	-341.54782	23.19033	105.64520	236.65172	29.23033	22.53828	-220.01245	21.38181	600.85016	322.95047	24.20026	550.60394	-87.90536	816.84320	-64.74993	-173.41328	555.10889	-34.58148	-22.81334	558.36145	-59.86056	-33.99149	554.75873	838.24139	115.54921	551.13025	816.19574	
1771	17.700	-341.60110	23.28574	105.66814	236.76295	29.09330	22.62895	-220.12596	21.29494	600.80981	322.90506	24.19180	550.53632	-88.08763	816.59314	-65.37848	-173.24292	554.81305	-34.95097	-22.61948	558.21332	-60.20942	-33.60534	555.49304	837.90845	115.85545	551.91663	815.72705	
1772	17.710	-341.64835	23.28966	105.65630	236.80089	29.03721	22.60869	-220.17804	21.27660	600.76123	322.97879	24.25748	550.59576	-88.11784	816.29791	-66.07431	-173.01007	554.47150	-35.32448	-22.44795	557.95660	-60.51042	-33.05424	555.46570	836.92450	116.17164	552.48541	815.63000	
1773	17.720	-341.53690	23.27251	105.64365	237.13876	29.00015	22.55342	-220.25406	21.36871	600.50220	323.05835	24.20624	550.56116	-87.94923	816.05786	-66.60960	-172.72165	554.31201	-35.74747	-22.20795	557.75110	-60.94563	-32.65044	556.13940	836.13135	116.30190	553.07373	814.95569	
1774	17.730	-341.50278	23.21998	105.64424	236.98111	28.80543	22.45574	-220.29594	21.37167	600.38910	323.12125	24.14515	550.52911	-87.89664	815.83411	-67.40534	-172.26160	553.95416	-36.15784	-21.85790	557.74945	-62.06049	-31.82742	556.38208	836.47736	116.77473	553.70227	814.13910	
